# xmcd
#
# Track frame offsets: 
#        150
#        13578
#        28747
#        46958
#        59726
#        74462
#        87443
#        105741
#
# Disc length: 1581 seconds
#
# Revision: 2
# Processed by: cddbd v1.5.2PL0 Copyright (c) Steve Scherf et al.
# Submitted via: ExactAudioCopy v0.99pb5
#
DISCID=6d062b08
DTITLE=Orquesta Dee Jay - Forget It
DYEAR=2007
DGENRE=Salsa
TTITLE0=Mi Son
TTITLE1=Calunga
TTITLE2=Forget It
TTITLE3=Maniatica
TTITLE4=Yemaya Y Obatala
TTITLE5=Dile Que Vuelva
TTITLE6=Dona Paula
TTITLE7=Buena Suerte
EXTD=YEAR: 2007
EXTT0=
EXTT1=
EXTT2=
EXTT3=
EXTT4=
EXTT5=
EXTT6=
EXTT7=
PLAYORDER=
